<mxfile host="app.diagrams.net" modified="2024-04-05T15:18:51.669Z" agent="Mozilla/5.0 (Windows NT 10.0; Win64; x64) AppleWebKit/537.36 (KHTML, like Gecko) Chrome/123.0.0.0 Safari/537.36" etag="TCGUqcM7U8tCNdpPDbWE" version="24.2.2" type="device">
  <diagram name="Страница — 1" id="2meOR2tapZOBt_wXkkEL">
    <mxGraphModel dx="2022" dy="750" grid="1" gridSize="10" guides="1" tooltips="1" connect="1" arrows="1" fold="1" page="1" pageScale="1" pageWidth="827" pageHeight="1169" math="0" shadow="0">
      <root>
        <mxCell id="0" />
        <mxCell id="1" parent="0" />
        <mxCell id="wZm4nHxazJ7L5KD6dbXJ-3" style="edgeStyle=orthogonalEdgeStyle;rounded=0;orthogonalLoop=1;jettySize=auto;html=1;exitX=0.5;exitY=1;exitDx=0;exitDy=0;entryX=0.5;entryY=0;entryDx=0;entryDy=0;fontSize=14;" edge="1" parent="1" source="wZm4nHxazJ7L5KD6dbXJ-1" target="wZm4nHxazJ7L5KD6dbXJ-2">
          <mxGeometry relative="1" as="geometry" />
        </mxCell>
        <mxCell id="wZm4nHxazJ7L5KD6dbXJ-5" style="edgeStyle=orthogonalEdgeStyle;rounded=0;orthogonalLoop=1;jettySize=auto;html=1;exitX=0.5;exitY=1;exitDx=0;exitDy=0;fontSize=14;" edge="1" parent="1" source="wZm4nHxazJ7L5KD6dbXJ-1" target="wZm4nHxazJ7L5KD6dbXJ-4">
          <mxGeometry relative="1" as="geometry" />
        </mxCell>
        <mxCell id="wZm4nHxazJ7L5KD6dbXJ-7" style="edgeStyle=orthogonalEdgeStyle;rounded=0;orthogonalLoop=1;jettySize=auto;html=1;exitX=0.5;exitY=1;exitDx=0;exitDy=0;fontSize=14;" edge="1" parent="1" source="wZm4nHxazJ7L5KD6dbXJ-1" target="wZm4nHxazJ7L5KD6dbXJ-6">
          <mxGeometry relative="1" as="geometry" />
        </mxCell>
        <mxCell id="wZm4nHxazJ7L5KD6dbXJ-9" style="edgeStyle=orthogonalEdgeStyle;rounded=0;orthogonalLoop=1;jettySize=auto;html=1;exitX=0.5;exitY=1;exitDx=0;exitDy=0;fontSize=14;" edge="1" parent="1" source="wZm4nHxazJ7L5KD6dbXJ-1" target="wZm4nHxazJ7L5KD6dbXJ-8">
          <mxGeometry relative="1" as="geometry" />
        </mxCell>
        <mxCell id="wZm4nHxazJ7L5KD6dbXJ-34" style="edgeStyle=orthogonalEdgeStyle;rounded=0;orthogonalLoop=1;jettySize=auto;html=1;exitX=0.5;exitY=1;exitDx=0;exitDy=0;entryX=0.5;entryY=0;entryDx=0;entryDy=0;" edge="1" parent="1" source="wZm4nHxazJ7L5KD6dbXJ-1" target="wZm4nHxazJ7L5KD6dbXJ-33">
          <mxGeometry relative="1" as="geometry">
            <Array as="points">
              <mxPoint x="260" y="200" />
              <mxPoint x="190" y="200" />
            </Array>
          </mxGeometry>
        </mxCell>
        <mxCell id="wZm4nHxazJ7L5KD6dbXJ-58" style="edgeStyle=orthogonalEdgeStyle;rounded=0;orthogonalLoop=1;jettySize=auto;html=1;exitX=0.5;exitY=1;exitDx=0;exitDy=0;entryX=0.5;entryY=0;entryDx=0;entryDy=0;" edge="1" parent="1" source="wZm4nHxazJ7L5KD6dbXJ-1" target="wZm4nHxazJ7L5KD6dbXJ-52">
          <mxGeometry relative="1" as="geometry">
            <Array as="points">
              <mxPoint x="260" y="200" />
              <mxPoint x="390" y="200" />
              <mxPoint x="390" y="360" />
              <mxPoint x="389" y="360" />
            </Array>
          </mxGeometry>
        </mxCell>
        <mxCell id="wZm4nHxazJ7L5KD6dbXJ-61" style="edgeStyle=orthogonalEdgeStyle;rounded=0;orthogonalLoop=1;jettySize=auto;html=1;exitX=0.5;exitY=1;exitDx=0;exitDy=0;entryX=0.5;entryY=-0.025;entryDx=0;entryDy=0;entryPerimeter=0;" edge="1" parent="1" source="wZm4nHxazJ7L5KD6dbXJ-1" target="wZm4nHxazJ7L5KD6dbXJ-59">
          <mxGeometry relative="1" as="geometry">
            <Array as="points">
              <mxPoint x="260" y="200" />
              <mxPoint x="590" y="200" />
            </Array>
          </mxGeometry>
        </mxCell>
        <mxCell id="wZm4nHxazJ7L5KD6dbXJ-1" value="БПЛА&lt;br style=&quot;font-size: 14px;&quot;&gt;ФАКИшники" style="rounded=0;whiteSpace=wrap;html=1;fontSize=14;" vertex="1" parent="1">
          <mxGeometry x="200" y="80" width="120" height="80" as="geometry" />
        </mxCell>
        <mxCell id="wZm4nHxazJ7L5KD6dbXJ-30" style="edgeStyle=orthogonalEdgeStyle;rounded=0;orthogonalLoop=1;jettySize=auto;html=1;exitX=0.25;exitY=1;exitDx=0;exitDy=0;entryX=0;entryY=0.5;entryDx=0;entryDy=0;" edge="1" parent="1" source="wZm4nHxazJ7L5KD6dbXJ-2" target="wZm4nHxazJ7L5KD6dbXJ-27">
          <mxGeometry relative="1" as="geometry" />
        </mxCell>
        <mxCell id="wZm4nHxazJ7L5KD6dbXJ-31" style="edgeStyle=orthogonalEdgeStyle;rounded=0;orthogonalLoop=1;jettySize=auto;html=1;exitX=0.25;exitY=1;exitDx=0;exitDy=0;entryX=0;entryY=0.5;entryDx=0;entryDy=0;" edge="1" parent="1" source="wZm4nHxazJ7L5KD6dbXJ-2" target="wZm4nHxazJ7L5KD6dbXJ-28">
          <mxGeometry relative="1" as="geometry" />
        </mxCell>
        <mxCell id="wZm4nHxazJ7L5KD6dbXJ-32" style="edgeStyle=orthogonalEdgeStyle;rounded=0;orthogonalLoop=1;jettySize=auto;html=1;exitX=0.25;exitY=1;exitDx=0;exitDy=0;entryX=0;entryY=0.5;entryDx=0;entryDy=0;" edge="1" parent="1" source="wZm4nHxazJ7L5KD6dbXJ-2" target="wZm4nHxazJ7L5KD6dbXJ-29">
          <mxGeometry relative="1" as="geometry" />
        </mxCell>
        <mxCell id="wZm4nHxazJ7L5KD6dbXJ-2" value="Система питания" style="rounded=0;whiteSpace=wrap;html=1;fontSize=14;strokeWidth=2;" vertex="1" parent="1">
          <mxGeometry y="240" width="120" height="80" as="geometry" />
        </mxCell>
        <mxCell id="wZm4nHxazJ7L5KD6dbXJ-24" style="edgeStyle=orthogonalEdgeStyle;rounded=0;orthogonalLoop=1;jettySize=auto;html=1;exitX=0.25;exitY=1;exitDx=0;exitDy=0;entryX=0;entryY=0.5;entryDx=0;entryDy=0;fontSize=14;" edge="1" parent="1" source="wZm4nHxazJ7L5KD6dbXJ-4" target="wZm4nHxazJ7L5KD6dbXJ-23">
          <mxGeometry relative="1" as="geometry" />
        </mxCell>
        <mxCell id="wZm4nHxazJ7L5KD6dbXJ-25" style="edgeStyle=orthogonalEdgeStyle;rounded=0;orthogonalLoop=1;jettySize=auto;html=1;exitX=0.25;exitY=1;exitDx=0;exitDy=0;entryX=0;entryY=0.5;entryDx=0;entryDy=0;fontSize=14;" edge="1" parent="1" source="wZm4nHxazJ7L5KD6dbXJ-4" target="wZm4nHxazJ7L5KD6dbXJ-22">
          <mxGeometry relative="1" as="geometry" />
        </mxCell>
        <mxCell id="wZm4nHxazJ7L5KD6dbXJ-26" style="edgeStyle=orthogonalEdgeStyle;rounded=0;orthogonalLoop=1;jettySize=auto;html=1;exitX=0.25;exitY=1;exitDx=0;exitDy=0;entryX=0;entryY=0.5;entryDx=0;entryDy=0;fontSize=14;" edge="1" parent="1" source="wZm4nHxazJ7L5KD6dbXJ-4" target="wZm4nHxazJ7L5KD6dbXJ-21">
          <mxGeometry relative="1" as="geometry" />
        </mxCell>
        <mxCell id="wZm4nHxazJ7L5KD6dbXJ-35" value="" style="edgeStyle=orthogonalEdgeStyle;rounded=0;orthogonalLoop=1;jettySize=auto;html=1;" edge="1" parent="1" source="wZm4nHxazJ7L5KD6dbXJ-4" target="wZm4nHxazJ7L5KD6dbXJ-22">
          <mxGeometry relative="1" as="geometry">
            <Array as="points">
              <mxPoint x="230" y="440" />
            </Array>
          </mxGeometry>
        </mxCell>
        <mxCell id="wZm4nHxazJ7L5KD6dbXJ-4" value="Система связи" style="rounded=0;whiteSpace=wrap;html=1;fontSize=14;strokeWidth=2;" vertex="1" parent="1">
          <mxGeometry x="200" y="240" width="120" height="80" as="geometry" />
        </mxCell>
        <mxCell id="wZm4nHxazJ7L5KD6dbXJ-19" style="edgeStyle=orthogonalEdgeStyle;rounded=0;orthogonalLoop=1;jettySize=auto;html=1;exitX=0.25;exitY=1;exitDx=0;exitDy=0;entryX=0;entryY=0.5;entryDx=0;entryDy=0;fontSize=14;" edge="1" parent="1" source="wZm4nHxazJ7L5KD6dbXJ-6" target="wZm4nHxazJ7L5KD6dbXJ-17">
          <mxGeometry relative="1" as="geometry" />
        </mxCell>
        <mxCell id="wZm4nHxazJ7L5KD6dbXJ-20" style="edgeStyle=orthogonalEdgeStyle;rounded=0;orthogonalLoop=1;jettySize=auto;html=1;exitX=0.25;exitY=1;exitDx=0;exitDy=0;entryX=0;entryY=0.5;entryDx=0;entryDy=0;fontSize=14;" edge="1" parent="1" source="wZm4nHxazJ7L5KD6dbXJ-6" target="wZm4nHxazJ7L5KD6dbXJ-18">
          <mxGeometry relative="1" as="geometry" />
        </mxCell>
        <mxCell id="wZm4nHxazJ7L5KD6dbXJ-6" value="Система доставки груза" style="rounded=0;whiteSpace=wrap;html=1;fontSize=14;strokeWidth=2;" vertex="1" parent="1">
          <mxGeometry x="400" y="240" width="120" height="80" as="geometry" />
        </mxCell>
        <mxCell id="wZm4nHxazJ7L5KD6dbXJ-13" style="edgeStyle=orthogonalEdgeStyle;rounded=0;orthogonalLoop=1;jettySize=auto;html=1;exitX=0.25;exitY=1;exitDx=0;exitDy=0;entryX=0;entryY=0.5;entryDx=0;entryDy=0;fontSize=14;" edge="1" parent="1" source="wZm4nHxazJ7L5KD6dbXJ-8" target="wZm4nHxazJ7L5KD6dbXJ-10">
          <mxGeometry relative="1" as="geometry" />
        </mxCell>
        <mxCell id="wZm4nHxazJ7L5KD6dbXJ-14" style="edgeStyle=orthogonalEdgeStyle;rounded=0;orthogonalLoop=1;jettySize=auto;html=1;exitX=0.25;exitY=1;exitDx=0;exitDy=0;entryX=0;entryY=0.5;entryDx=0;entryDy=0;fontSize=14;" edge="1" parent="1" source="wZm4nHxazJ7L5KD6dbXJ-8" target="wZm4nHxazJ7L5KD6dbXJ-11">
          <mxGeometry relative="1" as="geometry" />
        </mxCell>
        <mxCell id="wZm4nHxazJ7L5KD6dbXJ-16" style="edgeStyle=orthogonalEdgeStyle;rounded=0;orthogonalLoop=1;jettySize=auto;html=1;exitX=0.25;exitY=1;exitDx=0;exitDy=0;entryX=0;entryY=0.5;entryDx=0;entryDy=0;fontSize=14;" edge="1" parent="1" source="wZm4nHxazJ7L5KD6dbXJ-8" target="wZm4nHxazJ7L5KD6dbXJ-15">
          <mxGeometry relative="1" as="geometry" />
        </mxCell>
        <mxCell id="wZm4nHxazJ7L5KD6dbXJ-8" value="Механика" style="rounded=0;whiteSpace=wrap;html=1;fontSize=14;strokeWidth=2;" vertex="1" parent="1">
          <mxGeometry x="600" y="240" width="120" height="80" as="geometry" />
        </mxCell>
        <mxCell id="wZm4nHxazJ7L5KD6dbXJ-10" value="Фюзеляж" style="rounded=0;whiteSpace=wrap;html=1;fontSize=14;" vertex="1" parent="1">
          <mxGeometry x="660" y="360" width="120" height="40" as="geometry" />
        </mxCell>
        <mxCell id="wZm4nHxazJ7L5KD6dbXJ-11" value="Крыло" style="rounded=0;whiteSpace=wrap;html=1;fontSize=14;" vertex="1" parent="1">
          <mxGeometry x="660" y="420" width="120" height="40" as="geometry" />
        </mxCell>
        <mxCell id="wZm4nHxazJ7L5KD6dbXJ-15" value="Хвостовое&lt;br style=&quot;font-size: 14px;&quot;&gt;оперение" style="rounded=0;whiteSpace=wrap;html=1;fontSize=14;" vertex="1" parent="1">
          <mxGeometry x="660" y="480" width="120" height="40" as="geometry" />
        </mxCell>
        <mxCell id="wZm4nHxazJ7L5KD6dbXJ-17" value="Подвес" style="rounded=0;whiteSpace=wrap;html=1;fontSize=14;" vertex="1" parent="1">
          <mxGeometry x="460" y="360" width="120" height="40" as="geometry" />
        </mxCell>
        <mxCell id="wZm4nHxazJ7L5KD6dbXJ-18" value="Защита от перегрузки" style="rounded=0;whiteSpace=wrap;html=1;fontSize=14;" vertex="1" parent="1">
          <mxGeometry x="460" y="420" width="120" height="40" as="geometry" />
        </mxCell>
        <mxCell id="wZm4nHxazJ7L5KD6dbXJ-21" value="Телеметрия&lt;div style=&quot;font-size: 14px;&quot;&gt;433 МГц&lt;/div&gt;" style="rounded=0;whiteSpace=wrap;html=1;fontSize=14;" vertex="1" parent="1">
          <mxGeometry x="260" y="360" width="120" height="40" as="geometry" />
        </mxCell>
        <mxCell id="wZm4nHxazJ7L5KD6dbXJ-22" value="Видео&lt;div style=&quot;font-size: 14px;&quot;&gt;5ГГц&lt;/div&gt;" style="rounded=0;whiteSpace=wrap;html=1;fontSize=14;" vertex="1" parent="1">
          <mxGeometry x="260" y="420" width="120" height="40" as="geometry" />
        </mxCell>
        <mxCell id="wZm4nHxazJ7L5KD6dbXJ-23" value="Управление&lt;div style=&quot;font-size: 14px;&quot;&gt;2.4ГГц&lt;/div&gt;" style="rounded=0;whiteSpace=wrap;html=1;fontSize=14;" vertex="1" parent="1">
          <mxGeometry x="260" y="480" width="120" height="40" as="geometry" />
        </mxCell>
        <mxCell id="wZm4nHxazJ7L5KD6dbXJ-27" value="Аккумулятор" style="rounded=0;whiteSpace=wrap;html=1;fontSize=14;" vertex="1" parent="1">
          <mxGeometry x="60" y="360" width="120" height="40" as="geometry" />
        </mxCell>
        <mxCell id="wZm4nHxazJ7L5KD6dbXJ-28" value="Реглятор оборотов" style="rounded=0;whiteSpace=wrap;html=1;fontSize=14;" vertex="1" parent="1">
          <mxGeometry x="60" y="420" width="120" height="40" as="geometry" />
        </mxCell>
        <mxCell id="wZm4nHxazJ7L5KD6dbXJ-29" value="Коммутатор питания" style="rounded=0;whiteSpace=wrap;html=1;fontSize=14;" vertex="1" parent="1">
          <mxGeometry x="60" y="480" width="120" height="40" as="geometry" />
        </mxCell>
        <mxCell id="wZm4nHxazJ7L5KD6dbXJ-38" style="edgeStyle=orthogonalEdgeStyle;rounded=0;orthogonalLoop=1;jettySize=auto;html=1;exitX=0.25;exitY=1;exitDx=0;exitDy=0;entryX=0;entryY=0.5;entryDx=0;entryDy=0;" edge="1" parent="1" source="wZm4nHxazJ7L5KD6dbXJ-33" target="wZm4nHxazJ7L5KD6dbXJ-36">
          <mxGeometry relative="1" as="geometry" />
        </mxCell>
        <mxCell id="wZm4nHxazJ7L5KD6dbXJ-40" style="edgeStyle=orthogonalEdgeStyle;rounded=0;orthogonalLoop=1;jettySize=auto;html=1;exitX=0.25;exitY=1;exitDx=0;exitDy=0;entryX=0;entryY=0.5;entryDx=0;entryDy=0;" edge="1" parent="1" source="wZm4nHxazJ7L5KD6dbXJ-33" target="wZm4nHxazJ7L5KD6dbXJ-39">
          <mxGeometry relative="1" as="geometry" />
        </mxCell>
        <mxCell id="wZm4nHxazJ7L5KD6dbXJ-44" style="edgeStyle=orthogonalEdgeStyle;rounded=0;orthogonalLoop=1;jettySize=auto;html=1;exitX=0.25;exitY=1;exitDx=0;exitDy=0;entryX=0;entryY=0.5;entryDx=0;entryDy=0;" edge="1" parent="1" source="wZm4nHxazJ7L5KD6dbXJ-33" target="wZm4nHxazJ7L5KD6dbXJ-43">
          <mxGeometry relative="1" as="geometry" />
        </mxCell>
        <mxCell id="wZm4nHxazJ7L5KD6dbXJ-45" style="edgeStyle=orthogonalEdgeStyle;rounded=0;orthogonalLoop=1;jettySize=auto;html=1;exitX=0.25;exitY=1;exitDx=0;exitDy=0;entryX=0;entryY=0.5;entryDx=0;entryDy=0;" edge="1" parent="1" source="wZm4nHxazJ7L5KD6dbXJ-33" target="wZm4nHxazJ7L5KD6dbXJ-41">
          <mxGeometry relative="1" as="geometry" />
        </mxCell>
        <mxCell id="wZm4nHxazJ7L5KD6dbXJ-46" style="edgeStyle=orthogonalEdgeStyle;rounded=0;orthogonalLoop=1;jettySize=auto;html=1;exitX=0.25;exitY=1;exitDx=0;exitDy=0;entryX=0;entryY=0.5;entryDx=0;entryDy=0;" edge="1" parent="1" source="wZm4nHxazJ7L5KD6dbXJ-33" target="wZm4nHxazJ7L5KD6dbXJ-42">
          <mxGeometry relative="1" as="geometry" />
        </mxCell>
        <mxCell id="wZm4nHxazJ7L5KD6dbXJ-33" value="Система контроля полёта" style="rounded=0;whiteSpace=wrap;html=1;fontSize=14;strokeWidth=2;" vertex="1" parent="1">
          <mxGeometry x="130" y="560" width="120" height="80" as="geometry" />
        </mxCell>
        <mxCell id="wZm4nHxazJ7L5KD6dbXJ-36" value="Микроконтроллер" style="rounded=0;whiteSpace=wrap;html=1;fontSize=14;" vertex="1" parent="1">
          <mxGeometry x="180" y="680" width="120" height="40" as="geometry" />
        </mxCell>
        <mxCell id="wZm4nHxazJ7L5KD6dbXJ-39" value="GPS" style="rounded=0;whiteSpace=wrap;html=1;fontSize=14;" vertex="1" parent="1">
          <mxGeometry x="180" y="740" width="120" height="40" as="geometry" />
        </mxCell>
        <mxCell id="wZm4nHxazJ7L5KD6dbXJ-41" value="MPU" style="rounded=0;whiteSpace=wrap;html=1;fontSize=14;" vertex="1" parent="1">
          <mxGeometry x="180" y="800" width="120" height="40" as="geometry" />
        </mxCell>
        <mxCell id="wZm4nHxazJ7L5KD6dbXJ-42" value="Барометр" style="rounded=0;whiteSpace=wrap;html=1;fontSize=14;" vertex="1" parent="1">
          <mxGeometry x="180" y="860" width="120" height="40" as="geometry" />
        </mxCell>
        <mxCell id="wZm4nHxazJ7L5KD6dbXJ-43" value="Датчик потока" style="rounded=0;whiteSpace=wrap;html=1;fontSize=14;" vertex="1" parent="1">
          <mxGeometry x="180" y="920" width="120" height="40" as="geometry" />
        </mxCell>
        <mxCell id="wZm4nHxazJ7L5KD6dbXJ-47" style="edgeStyle=orthogonalEdgeStyle;rounded=0;orthogonalLoop=1;jettySize=auto;html=1;exitX=0.25;exitY=1;exitDx=0;exitDy=0;entryX=0;entryY=0.5;entryDx=0;entryDy=0;" edge="1" parent="1" source="wZm4nHxazJ7L5KD6dbXJ-52" target="wZm4nHxazJ7L5KD6dbXJ-53">
          <mxGeometry relative="1" as="geometry" />
        </mxCell>
        <mxCell id="wZm4nHxazJ7L5KD6dbXJ-48" style="edgeStyle=orthogonalEdgeStyle;rounded=0;orthogonalLoop=1;jettySize=auto;html=1;exitX=0.25;exitY=1;exitDx=0;exitDy=0;entryX=0;entryY=0.5;entryDx=0;entryDy=0;" edge="1" parent="1" source="wZm4nHxazJ7L5KD6dbXJ-52" target="wZm4nHxazJ7L5KD6dbXJ-54">
          <mxGeometry relative="1" as="geometry" />
        </mxCell>
        <mxCell id="wZm4nHxazJ7L5KD6dbXJ-50" style="edgeStyle=orthogonalEdgeStyle;rounded=0;orthogonalLoop=1;jettySize=auto;html=1;exitX=0.25;exitY=1;exitDx=0;exitDy=0;entryX=0;entryY=0.5;entryDx=0;entryDy=0;" edge="1" parent="1" source="wZm4nHxazJ7L5KD6dbXJ-52" target="wZm4nHxazJ7L5KD6dbXJ-55">
          <mxGeometry relative="1" as="geometry" />
        </mxCell>
        <mxCell id="wZm4nHxazJ7L5KD6dbXJ-51" style="edgeStyle=orthogonalEdgeStyle;rounded=0;orthogonalLoop=1;jettySize=auto;html=1;exitX=0.25;exitY=1;exitDx=0;exitDy=0;entryX=0;entryY=0.5;entryDx=0;entryDy=0;" edge="1" parent="1" source="wZm4nHxazJ7L5KD6dbXJ-52" target="wZm4nHxazJ7L5KD6dbXJ-56">
          <mxGeometry relative="1" as="geometry" />
        </mxCell>
        <mxCell id="wZm4nHxazJ7L5KD6dbXJ-67" style="edgeStyle=orthogonalEdgeStyle;rounded=0;orthogonalLoop=1;jettySize=auto;html=1;exitX=0.25;exitY=1;exitDx=0;exitDy=0;entryX=0;entryY=0.5;entryDx=0;entryDy=0;" edge="1" parent="1" source="wZm4nHxazJ7L5KD6dbXJ-52" target="wZm4nHxazJ7L5KD6dbXJ-66">
          <mxGeometry relative="1" as="geometry" />
        </mxCell>
        <mxCell id="wZm4nHxazJ7L5KD6dbXJ-52" value="Система управления полётом" style="rounded=0;whiteSpace=wrap;html=1;fontSize=14;strokeWidth=2;" vertex="1" parent="1">
          <mxGeometry x="329" y="560" width="120" height="80" as="geometry" />
        </mxCell>
        <mxCell id="wZm4nHxazJ7L5KD6dbXJ-53" value="Мотор" style="rounded=0;whiteSpace=wrap;html=1;fontSize=14;" vertex="1" parent="1">
          <mxGeometry x="379" y="680" width="120" height="40" as="geometry" />
        </mxCell>
        <mxCell id="wZm4nHxazJ7L5KD6dbXJ-54" value="Сервопривод элеваторов" style="rounded=0;whiteSpace=wrap;html=1;fontSize=14;" vertex="1" parent="1">
          <mxGeometry x="379" y="740" width="120" height="40" as="geometry" />
        </mxCell>
        <mxCell id="wZm4nHxazJ7L5KD6dbXJ-55" value="Сервопривод элеронов" style="rounded=0;whiteSpace=wrap;html=1;fontSize=14;" vertex="1" parent="1">
          <mxGeometry x="379" y="800" width="120" height="40" as="geometry" />
        </mxCell>
        <mxCell id="wZm4nHxazJ7L5KD6dbXJ-56" value="Сервопривод&lt;div&gt;руля напрвления&lt;/div&gt;" style="rounded=0;whiteSpace=wrap;html=1;fontSize=14;" vertex="1" parent="1">
          <mxGeometry x="379" y="860" width="120" height="40" as="geometry" />
        </mxCell>
        <mxCell id="wZm4nHxazJ7L5KD6dbXJ-63" style="edgeStyle=orthogonalEdgeStyle;rounded=0;orthogonalLoop=1;jettySize=auto;html=1;exitX=0.25;exitY=1;exitDx=0;exitDy=0;entryX=0;entryY=0.5;entryDx=0;entryDy=0;" edge="1" parent="1" source="wZm4nHxazJ7L5KD6dbXJ-59" target="wZm4nHxazJ7L5KD6dbXJ-62">
          <mxGeometry relative="1" as="geometry" />
        </mxCell>
        <mxCell id="wZm4nHxazJ7L5KD6dbXJ-65" style="edgeStyle=orthogonalEdgeStyle;rounded=0;orthogonalLoop=1;jettySize=auto;html=1;exitX=0.25;exitY=1;exitDx=0;exitDy=0;entryX=0;entryY=0.5;entryDx=0;entryDy=0;" edge="1" parent="1" source="wZm4nHxazJ7L5KD6dbXJ-59" target="wZm4nHxazJ7L5KD6dbXJ-64">
          <mxGeometry relative="1" as="geometry" />
        </mxCell>
        <mxCell id="wZm4nHxazJ7L5KD6dbXJ-59" value="Система управления полётом" style="rounded=0;whiteSpace=wrap;html=1;fontSize=14;strokeWidth=2;" vertex="1" parent="1">
          <mxGeometry x="530" y="560" width="120" height="80" as="geometry" />
        </mxCell>
        <mxCell id="wZm4nHxazJ7L5KD6dbXJ-62" value="RaspebrryPi" style="rounded=0;whiteSpace=wrap;html=1;fontSize=14;" vertex="1" parent="1">
          <mxGeometry x="580" y="680" width="120" height="40" as="geometry" />
        </mxCell>
        <mxCell id="wZm4nHxazJ7L5KD6dbXJ-64" value="Камера" style="rounded=0;whiteSpace=wrap;html=1;fontSize=14;" vertex="1" parent="1">
          <mxGeometry x="580" y="740" width="120" height="40" as="geometry" />
        </mxCell>
        <mxCell id="wZm4nHxazJ7L5KD6dbXJ-66" value="Система FPV" style="rounded=0;whiteSpace=wrap;html=1;fontSize=14;" vertex="1" parent="1">
          <mxGeometry x="380" y="920" width="120" height="40" as="geometry" />
        </mxCell>
      </root>
    </mxGraphModel>
  </diagram>
</mxfile>
